<?xml version="1.0" encoding="UTF-8"?>
<!DOCTYPE svg PUBLIC "-//W3C//DTD SVG 1.1//EN" "http://www.w3.org/Graphics/SVG/1.1/DTD/svg11.dtd">
<!-- Creator: CorelDRAW -->
<svg xmlns="http://www.w3.org/2000/svg" xml:space="preserve" width="215.9mm" height="279.4mm" version="1.1" style="shape-rendering:geometricPrecision; text-rendering:geometricPrecision; image-rendering:optimizeQuality; fill-rule:evenodd; clip-rule:evenodd"
viewBox="0 0 21590 27940"
 xmlns:xlink="http://www.w3.org/1999/xlink"
 xmlns:xodm="http://www.corel.com/coreldraw/odm/2003">
 <defs>
  <style type="text/css">
   <![CDATA[
    .fil3 {fill:#477AFC}
    .fil9 {fill:#47F8FB}
    .fil10 {fill:#4886FC}
    .fil0 {fill:#48B6F8}
    .fil11 {fill:#48FBB7}
    .fil7 {fill:#53D4F3}
    .fil4 {fill:#7B46FA}
    .fil1 {fill:#86F948}
    .fil12 {fill:#9648FC}
    .fil6 {fill:#AB47F9}
    .fil13 {fill:#D1F45C}
    .fil8 {fill:#D848FA}
    .fil20 {fill:#EB51F7}
    .fil14 {fill:#F5544F}
    .fil17 {fill:#F6E44C}
    .fil19 {fill:#F86E4C}
    .fil16 {fill:#F9477C}
    .fil2 {fill:#F947B9}
    .fil18 {fill:#F99548}
    .fil5 {fill:#FA8947}
    .fil15 {fill:#FAC347}
   ]]>
  </style>
 </defs>
 <g id="Capa_x0020_1">
  <metadata id="CorelCorpID_0Corel-Layer"/>
  <g id="_105553232558208">
   <path class="fil0" d="M10568.75 7790.34c51.21,57.61 -127.58,-74.47 51.51,36.76 44.76,27.76 54.86,32.26 79.02,46.56 33.41,19.8 89.52,54.46 124.08,81.02 192.7,-8.45 266.91,-39.16 207.5,-284.87 -36.21,-149.74 -479.62,-465.01 -750.28,-782.49 -902.87,-1058.86 -1825.25,-2820.24 -1694.27,-4348.61 433.16,-16.66 1674.16,753.43 2085.11,996.99 1253.01,742.53 2589.94,1660.2 3350.82,2912.46 198.35,326.43 380.69,645.71 575.34,993.54 418.35,747.49 297.07,796 446.46,1117.33l89.52 21.9 58.62 -122.93c-26.51,-611.8 -523.73,-1407.94 -784.74,-1886.66 -934.73,-1714.57 -2579.09,-2808.09 -4263.95,-3738.06 -285.32,-157.49 -552.48,-313.43 -840.3,-471.77 -1042.11,-573.19 -1228.8,5.05 -1085.87,1038.36 182.3,1318.02 911.07,2687.05 1701.67,3681.55 222.55,279.86 461.51,460.81 649.76,708.92z"/>
   <path class="fil1" d="M17815.77 18924.51l-95.97 10.6c-162.49,210.91 -286.62,186.25 -479.17,640.96 -332.63,785.49 -737.28,1346.58 -827.45,2476.16 -43.71,546.93 117.42,1512.72 429.55,1776.73 217.4,183.95 668.41,31.81 982.59,119.98 758.24,212.7 911.42,822.7 63.92,934.18 -221.31,29.16 -775.79,25.36 -1007.5,8.9 -529.73,-37.61 -1058.61,-369.49 -1302.92,-732.28l-657.46 -1375.68c-81.32,-197.75 -475.77,-1241.01 -685.32,-1338.83 26.86,164.69 152.09,405.2 220.11,575.49 243.51,609.55 779.24,2181.53 1139.73,2545.62 703.07,710.13 1301.71,681.87 2303.91,664.81 1021.8,-17.4 1278.31,-934.62 415.15,-1524.52 -758.08,-518.13 -1151.78,149.54 -1336.08,-481.82 -573.14,-1963.38 754.99,-2961.52 836.91,-4300.3z"/>
   <path class="fil2" d="M5885.8 19173.77c-468.96,255.32 -489.02,1529.33 -576.44,1977.29 -63.71,326.63 -201.5,680.51 -326.73,944.78 -168.99,356.53 -284.82,439.56 -491.17,709.47 -137.68,102.78 -49.71,94.42 -224.45,147.99 -37.71,125.93 -127.09,188.69 -261.67,280.42 -1581.68,1077.91 -3426.79,-1519.73 -1998.44,-2930.17 804.7,-794.54 1538.43,-312.33 1682.81,-354.89l-6.7 -96.52c-654.51,-773.94 -2877.1,270.97 -2395.43,2208.14 401.8,1615.89 1873.71,2294.71 3066.7,1437.55l58.81 -195.95 130.78 15.01c510.78,-299.73 922.38,-1178.89 1109.72,-1862.71 116.58,-425.55 110.08,-853.96 194.95,-1287.96 114.68,-586.7 265.47,-369.94 277.47,-1155.49 -2.25,3.1 -53.11,56.72 -59.41,62.82 -173.35,169.39 -102.83,135.88 -180.8,100.22z"/>
   <path class="fil3" d="M10823.36 7954.68c-34.56,-26.56 -90.67,-61.22 -124.08,-81.02 -24.16,-14.3 -34.26,-18.8 -79.02,-46.56 -179.09,-111.23 -0.3,20.85 -51.51,-36.76 -1103.57,-99.93 -1673.71,751.48 -1773.94,1816.59 -67.36,716.38 -65.06,1636.2 -468.46,2196.89 -66.27,92.12 -135.83,163.89 -230.76,233.31 -371.29,271.46 -324.73,393.94 180.7,456.71 680.26,84.52 1010.29,205.65 1808.44,11.6 993.49,-241.56 1776.98,-930.08 2250.75,-1731.92 189.75,-321.08 271.47,-597.65 434.31,-918.98 377.29,-744.38 982.34,-44.41 1110.27,249.32 38.81,89.07 45.91,146.58 98.37,242 76.52,139.14 43.66,120.53 187.35,139.79 276.31,-517.88 -551.49,-1447.46 -1183.24,-1269.66 -705.93,198.65 -570.74,1969.23 -2439.95,2814.39 -276.62,125.08 -696.07,258.31 -1029.4,284.27 -366.79,28.55 -984.89,12.65 -1223.85,-126.24 1267.36,-1104.42 -88.52,-3576.82 1791.84,-4175.62 217.6,-69.31 630.3,11.61 742.18,-58.11z"/>
   <path class="fil4" d="M6554.22 13100.44c188.99,569.49 213.65,806.45 589.19,1370.18 1252.06,1879.91 2000.54,2679.01 4030.83,3889.5 418.46,249.52 839.06,496.53 1200.1,788.1 1145.58,925.12 1335.98,2058.3 1799.89,2189.83 -187.45,-233.25 -66.02,-360.64 -158.44,-652.46 -1343.78,-2478.95 -2443.05,-2134.77 -4521.66,-3864.04 -265.26,-220.66 -513.47,-430.36 -738.68,-659.56l-636.05 -745.29 -58.92 -78.36c-4.25,-6.01 -15.6,-13.26 -18.75,-29.56 -3.3,-16.66 -12.2,-20.51 -18.66,-30.61 -159.28,-158.89 -249.21,-337.38 -391.99,-531.93 -132.53,-180.54 -252.16,-326.08 -379.74,-509.97 -201,-289.83 -522.08,-857.76 -577.5,-1217 -98.17,32.61 -69.66,0.4 -119.62,81.17z"/>
   <path class="fil5" d="M9380.31 19333.21c57.61,1022.85 1504.26,270.82 2257.9,722.13 1143.63,684.72 512.72,3028.14 -893.72,3947.71 -250.86,164.04 -713.67,389.35 -1007.8,516.53 -445.31,192.6 -660.51,237.51 -1197.99,288.97 127.38,61.17 203.95,49.11 300.02,207.5 -54.31,191.9 -11.5,-0.2 -75.96,163.74l542.08 -27.1 132.73 -70.42c420.45,-132.48 784.99,-332.13 1147.03,-517.88 230.96,-118.53 345.14,-193.15 523.23,-325.58 207.4,-154.24 290.97,-281.02 467.11,-416.6 78.92,-113.03 38.81,-117.93 188.9,-173.09 52.11,-179.45 1167.58,-1635.65 618.85,-3110.56 -405.5,-1089.82 -1492.36,-822.25 -2149.38,-857.26 -480.56,-25.66 -460.66,-88.07 -549.23,-466.12 -341.63,-10.1 52.41,87.02 -303.77,118.03z"/>
   <path class="fil6" d="M7098.7 12655.43c132.33,126.23 250.51,344.63 388.34,499.37 168.19,188.9 254.27,296.82 422.86,466.37 283.52,285.21 631.6,594.24 875.81,887.96 248.01,30.56 84.62,3.3 151.49,90.67 143.88,174 564.29,496.63 769.29,653.66 635.9,487.17 1944.12,1394.5 2375.23,1816.95 669.16,655.71 1464.2,1524.92 1751.83,2480.86 48.96,162.64 248.56,968.23 182.24,1134.32 92.42,291.82 -29.01,419.21 158.44,652.46 50.36,96.88 -1.55,41.36 82.32,89.37 216.2,-208.9 93.07,-523.32 78.87,-857.21 -36.01,-847.4 -334.03,-1629.99 -782.54,-2261.35 -1481.62,-2085.56 -2717.52,-2343.07 -4351.47,-3776.97 -609.5,-534.83 -1624.49,-1400.44 -2016.99,-2048 -115.08,96.47 -59.02,-10.36 -85.72,171.54z"/>
   <path class="fil7" d="M9728.74 9211.79c636.76,78.67 901.77,-266.82 1175.49,-590.15l422.6 -466.16c1031.8,-1026.45 2358.68,146.23 2779.28,918.82 528.13,969.94 524.48,1597.74 1431.4,2126.62 601.7,350.84 1409.05,-298.12 2228.2,270.77 254.26,176.54 254.01,341.98 422,494.02 35.26,-41.76 56.71,46.01 47.91,-156.09 -6.6,-152.59 -183.64,-348.78 -283.67,-439.06 -732.53,-660.81 -1792.59,-158.88 -2249.85,-376.59 -855.41,-407.3 -990.69,-1503.81 -1488.86,-2278.15 -510.03,-792.9 -1481.06,-1480.62 -2451.7,-1230.36 -598.65,154.34 -1026.7,1000.45 -1491.32,1307.87 -198.59,131.44 -474.01,200.8 -541.48,418.46z"/>
   <path class="fil8" d="M3683.01 19852.14l6.7 96.52c34.21,128.18 -54.91,610.55 -65.26,790.05 -18.81,325.18 7.55,589.74 43.81,888.21 56.51,464.92 311.33,1140.58 598.75,1326.38 174.74,-53.57 86.77,-45.21 224.45,-147.99 -194.95,-920.42 -485.37,-344.88 -486.67,-2321.27 -1.05,-1588.69 1137.23,-3667.74 2367.43,-4579.52 522.13,-386.94 735.88,-361.13 719.48,-616.35 -367.34,-24.35 -1036.46,520.53 -1253.71,716.03 -899.47,809.4 -2067.91,2714.01 -2093.11,3885.55l-61.87 -37.61z"/>
   <path class="fil9" d="M15044.04 8559.03c10.05,397.44 113.23,615.95 438.11,751.53 718.02,299.62 1764.78,126.68 2816.14,824.3 271.26,180 440.6,333.28 673.61,511.38 539.38,412.25 1582.04,1347.28 1539.18,2136.22 117.98,66.62 -7.35,18.95 162.54,41.26l5.15 -336.63c-140.79,-708.93 -451.81,-1126.78 -870.06,-1534.83 -881.27,-859.61 -1683.67,-1543.52 -2981.83,-1758.33 -2091.56,-346.08 -1058.31,-467.16 -1634.7,-735.93l-58.62 122.93 -89.52 -21.9z"/>
   <path class="fil10" d="M4690.36 9778.48c485.27,620.45 446.06,789.04 1430.2,1269.11 297.42,145.08 684.87,250.06 849.26,507.22 208.8,326.63 28.25,826.85 -145.09,1033.35 -771.54,919.08 -2519.51,-1374.78 -2134.37,-2809.68zm1863.86 3321.96c49.96,-80.77 21.45,-48.56 119.62,-81.17 221.86,-69.92 318.38,-169.54 424.86,-363.84 26.7,-181.9 -29.36,-75.07 85.72,-171.54 219.9,-302.13 150.19,-909.43 -57.46,-1170.64 -229.46,-288.57 -571.34,-367.09 -935.53,-547.33 -481.27,-238.16 -923.58,-562.14 -1197.4,-1005.45 -120.78,-195.55 -146.33,-402.6 -222.5,-531.13 -282.02,112.13 -336.93,888.07 -286.72,1250.06 73.82,532.53 159.64,799.19 355.59,1211.39 213.6,449.16 654.01,1020.1 1089.01,1242.56 262.57,134.28 371.44,94.32 624.81,167.09z"/>
   <path class="fil11" d="M20511.08 12782.46c-174.79,86.02 -151.79,164.24 -247.56,329.88 -692.87,1198.54 -2125.27,904.22 -2522.87,1625.8 -282.62,512.92 106.38,1441.8 156.19,2020.39 124.03,1441.05 -168.84,1896.07 -177.04,2176.58l95.97 -10.6c251.81,-321.38 384.44,-1601.29 309.17,-2101.06 -60.31,-400.6 -59.81,-671.67 -157.78,-1067.81 -83.47,-337.74 -165.79,-709.78 142.23,-942.68 260.81,-197.2 563.29,-248.41 890.97,-336.39 301.57,-81.02 624.1,-201.14 863.91,-365.84 912.92,-626.85 792.49,-1006.94 814.5,-1623.64l-5.15 336.63c-169.89,-22.31 -44.56,25.36 -162.54,-41.26z"/>
   <path class="fil12" d="M12562.48 10483.75c48.22,197.35 76.17,129.08 265.87,252.26 120.83,78.42 200.6,158.84 290.72,257.31 146.99,160.69 332.73,443.31 390.55,709.63 244.96,1128.52 -2272.81,2341.42 -3242.4,2634.64 -208.9,63.22 -240.71,63.52 -327.38,225.51 372.99,231.4 463.92,88.67 837.86,-55.07 324.13,-124.58 531.58,-223.95 807.95,-377.54 807.24,-448.61 2410.58,-1367.28 2118.26,-2494.31 -181.59,-700.07 -914.62,-1314.82 -1141.43,-1152.43z"/>
   <path class="fil13" d="M9437.57 25082.27l-132.73 70.42 43.96 283.36c420.55,53.62 1978.58,-154.03 2664.8,-158.63l2117.52 -44.42c159.59,-9.8 360.14,-104.07 506.47,-169.24 -85.02,6.91 -72.32,18.36 -166.49,1.75 -125.33,-22.05 -53.16,7.91 -130.23,-59.76 -264.17,28.16 -343.33,-28.56 -590.8,-37.51l-1908.41 3.4c-306.68,11.5 -881.12,23.01 -1207.15,65.47 -402.15,52.31 -774.19,82.87 -1196.94,45.16z"/>
   <path class="fil14" d="M5885.8 19173.77c77.97,35.66 7.45,69.17 180.8,-100.22 6.3,-6.1 57.16,-59.72 59.41,-62.82 460.71,-353.93 702.97,-917.37 1869.66,-1226.75 535.93,-142.08 949.58,-43.41 1190.64,275.37 378.19,500.22 77.57,849.61 194,1273.86 356.18,-31.01 -37.86,-128.13 303.77,-118.03 -11.25,-389.34 142.59,-904.67 -312.08,-1425.7 -333.38,-382.04 -826.45,-457.36 -1418.09,-304.07 -810.45,209.9 -1824.4,950.68 -2068.11,1688.36z"/>
   <path class="fil15" d="M4354.28 23497.83c79.87,32.01 54.01,23.56 105.52,93.57 46.71,63.37 43.56,82.32 75.72,134.84 120.93,197.59 389.2,470.91 546.44,600.19 496.57,408.25 1540.42,793.05 2231.64,855.46 1087.37,98.13 858.96,-23.35 1449.16,-2.1 64.46,-163.94 21.65,28.16 75.96,-163.74 -96.07,-158.39 -172.64,-146.33 -300.02,-207.5 -696.72,183.3 -1922.27,-39.56 -2471,-241.21 -583.7,-214.5 -1345.48,-633.15 -1523.83,-1250.45l-130.78 -15.01 -58.81 195.95z"/>
   <path class="fil16" d="M8539.6 23788.05c209.15,-722.68 -820.25,-1039.1 -995.04,-272.02 -171.24,751.64 778.89,1018.9 995.04,272.02z"/>
   <path class="fil17" d="M11763.84 23649.12c-150.09,55.16 -109.98,60.06 -188.9,173.09 686.87,33.01 1202.15,-86.12 1837.85,129.18 578.64,196.05 780.39,520.48 928.08,1054.36 77.07,67.67 4.9,37.71 130.23,59.76 94.17,16.61 81.47,5.16 166.49,-1.75 76.97,-125.33 60.77,-77.17 0.15,-214.15l-290.12 -554.78c-87.17,-129.79 -166.54,-231.36 -278.57,-319.78 -459.71,-363.09 -1721.62,-531.23 -2305.21,-325.93z"/>
   <path class="fil18" d="M10316.29 21501.54c102.87,655.41 996.24,753.44 1058.55,-45.96 28.36,-363.34 -182.99,-528.83 -546.03,-502.62 -291.27,21.05 -567.44,198.6 -512.52,548.58z"/>
   <path class="fil19" d="M9301.54 22983.55c114.12,632.41 988.14,764.94 1013.19,-1.75 25.16,-768.43 -1121.87,-600.59 -1013.19,1.75z"/>
   <path class="fil20" d="M8023.07 15278.17c6.46,10.1 15.36,13.95 18.66,30.61 3.15,16.3 14.5,23.55 18.75,29.56l58.92 78.36c178.14,-58.76 437.1,-402.69 614.35,-580.24l203.45 -236.66c-66.87,-87.37 96.52,-60.11 -151.49,-90.67 -144.18,15.01 -160.94,54.97 -242.36,136.34 -92.47,92.42 -89.57,88.27 -203.45,177.29 -238.36,186.34 -219.15,274.22 -316.83,455.41z"/>
  </g>
 </g>
</svg>
